<mxfile host="Electron" agent="Mozilla/5.0 (Windows NT 10.0; Win64; x64) AppleWebKit/537.36 (KHTML, like Gecko) draw.io/26.0.9 Chrome/128.0.6613.186 Electron/32.2.5 Safari/537.36" version="26.0.9">
  <diagram name="Página-1" id="lPuu4sBIfVqhGg5xDbdZ">
    <mxGraphModel dx="1434" dy="836" grid="1" gridSize="10" guides="1" tooltips="1" connect="1" arrows="1" fold="1" page="1" pageScale="1" pageWidth="827" pageHeight="1169" math="0" shadow="0">
      <root>
        <mxCell id="0" />
        <mxCell id="1" parent="0" />
        <mxCell id="8cMK2htJor-MxqmOE3pB-17" value="" style="edgeStyle=orthogonalEdgeStyle;rounded=0;orthogonalLoop=1;jettySize=auto;html=1;" edge="1" parent="1" source="8cMK2htJor-MxqmOE3pB-1" target="8cMK2htJor-MxqmOE3pB-16">
          <mxGeometry relative="1" as="geometry" />
        </mxCell>
        <mxCell id="8cMK2htJor-MxqmOE3pB-1" value="INÍCIO" style="ellipse;whiteSpace=wrap;html=1;" vertex="1" parent="1">
          <mxGeometry x="321" y="40" width="186" height="50" as="geometry" />
        </mxCell>
        <mxCell id="8cMK2htJor-MxqmOE3pB-2" value="FIM" style="ellipse;whiteSpace=wrap;html=1;" vertex="1" parent="1">
          <mxGeometry x="319" y="1110" width="169" height="40" as="geometry" />
        </mxCell>
        <mxCell id="8cMK2htJor-MxqmOE3pB-6" value="" style="edgeStyle=orthogonalEdgeStyle;rounded=0;orthogonalLoop=1;jettySize=auto;html=1;" edge="1" parent="1" source="8cMK2htJor-MxqmOE3pB-3" target="8cMK2htJor-MxqmOE3pB-4">
          <mxGeometry relative="1" as="geometry" />
        </mxCell>
        <mxCell id="8cMK2htJor-MxqmOE3pB-3" value="&lt;div&gt;&lt;br&gt;&lt;/div&gt;Altura = 0.0" style="html=1;strokeWidth=2;shape=manualInput;whiteSpace=wrap;rounded=1;size=26;arcSize=11;" vertex="1" parent="1">
          <mxGeometry x="364" y="280" width="100" height="60" as="geometry" />
        </mxCell>
        <mxCell id="8cMK2htJor-MxqmOE3pB-19" value="" style="edgeStyle=orthogonalEdgeStyle;rounded=0;orthogonalLoop=1;jettySize=auto;html=1;" edge="1" parent="1" source="8cMK2htJor-MxqmOE3pB-4" target="8cMK2htJor-MxqmOE3pB-7">
          <mxGeometry relative="1" as="geometry" />
        </mxCell>
        <mxCell id="8cMK2htJor-MxqmOE3pB-4" value="&lt;div&gt;&lt;br&gt;&lt;/div&gt;Sexo = &quot;&quot;&lt;div&gt;&lt;/div&gt;" style="html=1;strokeWidth=2;shape=manualInput;whiteSpace=wrap;rounded=1;size=26;arcSize=11;" vertex="1" parent="1">
          <mxGeometry x="364" y="390" width="100" height="60" as="geometry" />
        </mxCell>
        <mxCell id="8cMK2htJor-MxqmOE3pB-11" value="" style="edgeStyle=orthogonalEdgeStyle;rounded=0;orthogonalLoop=1;jettySize=auto;html=1;" edge="1" parent="1" source="8cMK2htJor-MxqmOE3pB-7" target="8cMK2htJor-MxqmOE3pB-10">
          <mxGeometry relative="1" as="geometry" />
        </mxCell>
        <mxCell id="8cMK2htJor-MxqmOE3pB-28" value="" style="edgeStyle=orthogonalEdgeStyle;rounded=0;orthogonalLoop=1;jettySize=auto;html=1;entryX=0.5;entryY=0;entryDx=0;entryDy=0;entryPerimeter=0;" edge="1" parent="1" source="8cMK2htJor-MxqmOE3pB-7" target="8cMK2htJor-MxqmOE3pB-21">
          <mxGeometry relative="1" as="geometry">
            <mxPoint x="666" y="570" as="targetPoint" />
          </mxGeometry>
        </mxCell>
        <mxCell id="8cMK2htJor-MxqmOE3pB-7" value="&lt;div&gt;&lt;span style=&quot;background-color: transparent; color: light-dark(rgb(0, 0, 0), rgb(255, 255, 255));&quot;&gt;Se Altura == 0 e Sexo == Branco&amp;nbsp;&lt;/span&gt;&lt;/div&gt;&lt;div&gt;&lt;span style=&quot;background-color: transparent; color: light-dark(rgb(0, 0, 0), rgb(255, 255, 255));&quot;&gt;ou Sexo == Vazio&lt;/span&gt;&lt;br&gt;&lt;/div&gt;" style="strokeWidth=2;html=1;shape=mxgraph.flowchart.decision;whiteSpace=wrap;" vertex="1" parent="1">
          <mxGeometry x="264" y="520" width="300" height="100" as="geometry" />
        </mxCell>
        <mxCell id="8cMK2htJor-MxqmOE3pB-13" value="" style="edgeStyle=orthogonalEdgeStyle;rounded=0;orthogonalLoop=1;jettySize=auto;html=1;entryX=0;entryY=0.5;entryDx=0;entryDy=0;" edge="1" parent="1" source="8cMK2htJor-MxqmOE3pB-10" target="8cMK2htJor-MxqmOE3pB-2">
          <mxGeometry relative="1" as="geometry">
            <mxPoint x="130" y="1100" as="targetPoint" />
            <Array as="points">
              <mxPoint x="130" y="1130" />
            </Array>
          </mxGeometry>
        </mxCell>
        <mxCell id="8cMK2htJor-MxqmOE3pB-10" value="" style="ellipse;whiteSpace=wrap;html=1;strokeWidth=2;" vertex="1" parent="1">
          <mxGeometry x="100" y="960" width="60" height="50" as="geometry" />
        </mxCell>
        <mxCell id="8cMK2htJor-MxqmOE3pB-14" value="NÃO" style="text;html=1;align=center;verticalAlign=middle;whiteSpace=wrap;rounded=0;" vertex="1" parent="1">
          <mxGeometry x="170" y="530" width="60" height="30" as="geometry" />
        </mxCell>
        <mxCell id="8cMK2htJor-MxqmOE3pB-15" value="SIM" style="text;html=1;align=center;verticalAlign=middle;whiteSpace=wrap;rounded=0;" vertex="1" parent="1">
          <mxGeometry x="610" y="540" width="60" height="30" as="geometry" />
        </mxCell>
        <mxCell id="8cMK2htJor-MxqmOE3pB-18" value="" style="edgeStyle=orthogonalEdgeStyle;rounded=0;orthogonalLoop=1;jettySize=auto;html=1;" edge="1" parent="1" source="8cMK2htJor-MxqmOE3pB-16" target="8cMK2htJor-MxqmOE3pB-3">
          <mxGeometry relative="1" as="geometry" />
        </mxCell>
        <mxCell id="8cMK2htJor-MxqmOE3pB-16" value="sugeridoHomem = 0&lt;div&gt;sugeridoMulher = 0&lt;/div&gt;" style="shape=parallelogram;html=1;strokeWidth=2;perimeter=parallelogramPerimeter;whiteSpace=wrap;rounded=1;arcSize=12;size=0.23;" vertex="1" parent="1">
          <mxGeometry x="309" y="160" width="209" height="40" as="geometry" />
        </mxCell>
        <mxCell id="8cMK2htJor-MxqmOE3pB-37" value="" style="edgeStyle=orthogonalEdgeStyle;rounded=0;orthogonalLoop=1;jettySize=auto;html=1;" edge="1" parent="1" source="8cMK2htJor-MxqmOE3pB-20" target="8cMK2htJor-MxqmOE3pB-22">
          <mxGeometry relative="1" as="geometry" />
        </mxCell>
        <mxCell id="8cMK2htJor-MxqmOE3pB-46" value="" style="edgeStyle=orthogonalEdgeStyle;rounded=0;orthogonalLoop=1;jettySize=auto;html=1;entryX=1;entryY=0.5;entryDx=0;entryDy=0;" edge="1" parent="1" source="8cMK2htJor-MxqmOE3pB-20" target="8cMK2htJor-MxqmOE3pB-10">
          <mxGeometry relative="1" as="geometry">
            <mxPoint x="230" y="980" as="targetPoint" />
          </mxGeometry>
        </mxCell>
        <mxCell id="8cMK2htJor-MxqmOE3pB-20" value="&lt;div&gt;&lt;span style=&quot;background-color: transparent; color: light-dark(rgb(0, 0, 0), rgb(255, 255, 255));&quot;&gt;Se Sexo == &#39;M&#39;&lt;/span&gt;&lt;/div&gt;" style="strokeWidth=2;html=1;shape=mxgraph.flowchart.decision;whiteSpace=wrap;" vertex="1" parent="1">
          <mxGeometry x="356" y="690" width="172" height="50" as="geometry" />
        </mxCell>
        <mxCell id="8cMK2htJor-MxqmOE3pB-29" value="" style="edgeStyle=orthogonalEdgeStyle;rounded=0;orthogonalLoop=1;jettySize=auto;html=1;" edge="1" parent="1" source="8cMK2htJor-MxqmOE3pB-21" target="8cMK2htJor-MxqmOE3pB-23">
          <mxGeometry relative="1" as="geometry" />
        </mxCell>
        <mxCell id="8cMK2htJor-MxqmOE3pB-33" value="" style="edgeStyle=orthogonalEdgeStyle;rounded=0;orthogonalLoop=1;jettySize=auto;html=1;" edge="1" parent="1" source="8cMK2htJor-MxqmOE3pB-21" target="8cMK2htJor-MxqmOE3pB-20">
          <mxGeometry relative="1" as="geometry" />
        </mxCell>
        <mxCell id="8cMK2htJor-MxqmOE3pB-21" value="&lt;div&gt;&lt;span style=&quot;background-color: transparent; color: light-dark(rgb(0, 0, 0), rgb(255, 255, 255));&quot;&gt;Se Sexo == &#39;H&#39;&lt;/span&gt;&lt;/div&gt;" style="strokeWidth=2;html=1;shape=mxgraph.flowchart.decision;whiteSpace=wrap;" vertex="1" parent="1">
          <mxGeometry x="610" y="690" width="172" height="50" as="geometry" />
        </mxCell>
        <mxCell id="8cMK2htJor-MxqmOE3pB-38" value="" style="edgeStyle=orthogonalEdgeStyle;rounded=0;orthogonalLoop=1;jettySize=auto;html=1;" edge="1" parent="1" source="8cMK2htJor-MxqmOE3pB-22" target="8cMK2htJor-MxqmOE3pB-24">
          <mxGeometry relative="1" as="geometry" />
        </mxCell>
        <mxCell id="8cMK2htJor-MxqmOE3pB-22" value="sugeridoMulher&amp;nbsp; = (62,1 * Altura) - 44,7" style="rounded=1;whiteSpace=wrap;html=1;absoluteArcSize=1;arcSize=14;strokeWidth=2;" vertex="1" parent="1">
          <mxGeometry x="332" y="800" width="220" height="50" as="geometry" />
        </mxCell>
        <mxCell id="8cMK2htJor-MxqmOE3pB-30" value="" style="edgeStyle=orthogonalEdgeStyle;rounded=0;orthogonalLoop=1;jettySize=auto;html=1;" edge="1" parent="1" source="8cMK2htJor-MxqmOE3pB-23" target="8cMK2htJor-MxqmOE3pB-25">
          <mxGeometry relative="1" as="geometry" />
        </mxCell>
        <mxCell id="8cMK2htJor-MxqmOE3pB-23" value="sugeridoMulher&amp;nbsp; = (72,7 * Altura) - 58" style="rounded=1;whiteSpace=wrap;html=1;absoluteArcSize=1;arcSize=14;strokeWidth=2;" vertex="1" parent="1">
          <mxGeometry x="586" y="800" width="220" height="50" as="geometry" />
        </mxCell>
        <mxCell id="8cMK2htJor-MxqmOE3pB-41" value="" style="edgeStyle=orthogonalEdgeStyle;rounded=0;orthogonalLoop=1;jettySize=auto;html=1;entryX=0;entryY=0.5;entryDx=0;entryDy=0;" edge="1" parent="1" source="8cMK2htJor-MxqmOE3pB-24" target="8cMK2htJor-MxqmOE3pB-31">
          <mxGeometry relative="1" as="geometry">
            <Array as="points">
              <mxPoint x="442" y="1065" />
            </Array>
          </mxGeometry>
        </mxCell>
        <mxCell id="8cMK2htJor-MxqmOE3pB-24" value="sugeridoMulher" style="strokeWidth=2;html=1;shape=mxgraph.flowchart.display;whiteSpace=wrap;" vertex="1" parent="1">
          <mxGeometry x="392" y="940" width="100" height="60" as="geometry" />
        </mxCell>
        <mxCell id="8cMK2htJor-MxqmOE3pB-40" value="" style="edgeStyle=orthogonalEdgeStyle;rounded=0;orthogonalLoop=1;jettySize=auto;html=1;entryX=0.94;entryY=0.64;entryDx=0;entryDy=0;entryPerimeter=0;" edge="1" parent="1" source="8cMK2htJor-MxqmOE3pB-25" target="8cMK2htJor-MxqmOE3pB-31">
          <mxGeometry relative="1" as="geometry">
            <mxPoint x="710" y="1110" as="targetPoint" />
            <Array as="points">
              <mxPoint x="690" y="1065" />
              <mxPoint x="604" y="1065" />
            </Array>
          </mxGeometry>
        </mxCell>
        <mxCell id="8cMK2htJor-MxqmOE3pB-25" value="sugeridoMulher" style="strokeWidth=2;html=1;shape=mxgraph.flowchart.display;whiteSpace=wrap;" vertex="1" parent="1">
          <mxGeometry x="646" y="940" width="100" height="60" as="geometry" />
        </mxCell>
        <mxCell id="8cMK2htJor-MxqmOE3pB-43" value="" style="edgeStyle=orthogonalEdgeStyle;rounded=0;orthogonalLoop=1;jettySize=auto;html=1;entryX=1;entryY=0.5;entryDx=0;entryDy=0;" edge="1" parent="1" source="8cMK2htJor-MxqmOE3pB-31" target="8cMK2htJor-MxqmOE3pB-2">
          <mxGeometry relative="1" as="geometry">
            <mxPoint x="582" y="1170" as="targetPoint" />
            <Array as="points">
              <mxPoint x="582" y="1130" />
            </Array>
          </mxGeometry>
        </mxCell>
        <mxCell id="8cMK2htJor-MxqmOE3pB-31" value="" style="ellipse;whiteSpace=wrap;html=1;strokeWidth=2;" vertex="1" parent="1">
          <mxGeometry x="557" y="1040" width="50" height="50" as="geometry" />
        </mxCell>
        <mxCell id="8cMK2htJor-MxqmOE3pB-34" value="SIM" style="text;html=1;align=center;verticalAlign=middle;whiteSpace=wrap;rounded=0;" vertex="1" parent="1">
          <mxGeometry x="432" y="750" width="60" height="30" as="geometry" />
        </mxCell>
        <mxCell id="8cMK2htJor-MxqmOE3pB-35" value="SIM" style="text;html=1;align=center;verticalAlign=middle;whiteSpace=wrap;rounded=0;" vertex="1" parent="1">
          <mxGeometry x="700" y="750" width="60" height="30" as="geometry" />
        </mxCell>
        <mxCell id="8cMK2htJor-MxqmOE3pB-36" value="NÃO" style="text;html=1;align=center;verticalAlign=middle;whiteSpace=wrap;rounded=0;" vertex="1" parent="1">
          <mxGeometry x="564" y="690" width="60" height="30" as="geometry" />
        </mxCell>
        <mxCell id="8cMK2htJor-MxqmOE3pB-47" value="NÃO" style="text;html=1;align=center;verticalAlign=middle;whiteSpace=wrap;rounded=0;" vertex="1" parent="1">
          <mxGeometry x="280" y="690" width="60" height="30" as="geometry" />
        </mxCell>
      </root>
    </mxGraphModel>
  </diagram>
</mxfile>
